<svg width="506" height="332" viewBox="0 0 506 332" fill="none" xmlns="http://www.w3.org/2000/svg">
<path d="M10.3129 197.271C10.3129 197.271 5.16652 199.194 10.8045 209.999C16.4424 220.805 20.3409 226.15 20.3409 226.15C20.3409 226.15 21.3429 228.659 19.1994 229.057C17.0559 229.454 12.3291 228.727 11.3823 231.319C10.4004 234.007 12.3863 236.533 16.404 238.74C20.421 240.949 29.0429 246.105 29.82 246.574C30.5837 247.034 31.3521 248.201 29.9352 248.702C28.519 249.204 17.8977 250.333 18.7422 255.27C19.5873 260.208 31.804 264.546 33.1299 265.045C34.4559 265.544 34.7751 266.097 34.6694 266.814C34.5637 267.532 30.9575 267.579 27.9499 268.022C24.9424 268.465 21.5335 269.499 22.2635 272.307C22.9928 275.115 30.2409 280.996 47.7965 282.634L55.9814 282.867L60.4119 276.035C68.9893 260.843 68.1805 251.623 66.2471 249.439C64.3137 247.255 61.519 249.439 59.4441 251.631C57.37 253.824 55.2871 256.727 54.6278 256.406C53.9685 256.085 53.687 255.514 54.0217 254.153C54.3557 252.793 57.6515 240.409 54.0035 236.926C50.3562 233.442 43.395 241.432 42.1734 242.299C40.9518 243.165 40.4117 241.881 40.4595 240.999C40.508 240.101 41.0831 230.175 41.5141 225.66C41.9444 221.145 40.9592 218.101 38.1564 217.376C35.4539 216.676 33.3838 220.929 31.837 222.445C30.2901 223.962 28.7607 221.726 28.7607 221.726C28.7607 221.726 26.5021 215.53 20.6655 204.828C14.8295 194.126 10.2091 197.318 10.2091 197.318" fill="#F5F5F5"/>
<path d="M56.4131 284.764C52.1583 276.888 44.8348 262.763 38.483 250.669C32.134 238.579 26.3748 227.638 22.1612 219.741C20.054 215.801 18.3469 212.61 17.161 210.394C16.5751 209.297 16.1185 208.442 15.8033 207.851C15.6545 207.566 15.5387 207.345 15.4558 207.187C15.3791 207.037 15.3454 206.957 15.3454 206.957C15.3454 206.957 15.3946 207.028 15.4787 207.175C15.567 207.331 15.6895 207.548 15.8484 207.828C16.1737 208.414 16.6444 209.261 17.2485 210.349C18.462 212.538 20.1948 215.72 22.3201 219.659C26.5748 227.535 32.3596 238.465 38.7086 250.555C45.0604 262.65 52.3577 276.786 56.572 284.683" fill="#E0E0E0"/>
<path d="M17.9529 232.598C17.959 232.582 18.1617 232.638 18.524 232.753C18.8869 232.867 19.4062 233.046 20.0466 233.274C21.3254 233.732 23.0757 234.408 24.9936 235.189C26.8819 235.966 28.589 236.669 29.8955 237.207C30.4854 237.445 30.9837 237.647 31.3837 237.808C31.7359 237.949 31.9279 238.034 31.9225 238.051C31.9164 238.067 31.7131 238.013 31.3501 237.9C30.9871 237.785 30.4672 237.606 29.8295 237.371C28.5547 236.9 26.8139 236.202 24.8973 235.42C23.0043 234.657 21.2924 233.967 19.9833 233.438C19.3913 233.203 18.8923 233.003 18.491 232.843C18.1381 232.702 17.9468 232.615 17.9529 232.598Z" fill="#E0E0E0"/>
<path d="M32.4794 237.534C32.4134 237.511 33.6694 233.891 35.2842 229.452C36.8998 225.01 38.2628 221.429 38.3288 221.453C38.3948 221.476 37.1389 225.095 35.5233 229.537C33.9091 233.976 32.5454 237.557 32.4794 237.534Z" fill="#E0E0E0"/>
<path d="M41.3821 256.537C41.368 256.526 41.4865 256.349 41.7128 256.038C41.9714 255.686 42.2946 255.248 42.6778 254.726C43.4906 253.618 44.6072 252.084 45.7763 250.345C46.9494 248.609 47.9555 247.001 48.6747 245.832C49.0134 245.282 49.299 244.818 49.5279 244.447C49.7313 244.121 49.8512 243.944 49.866 243.953C49.8815 243.962 49.7912 244.153 49.6141 244.495C49.437 244.836 49.1717 245.325 48.8303 245.921C48.1501 247.116 47.1649 248.742 45.9884 250.483C44.816 252.226 43.6738 253.75 42.8219 254.832C42.3943 255.372 42.0428 255.805 41.7909 256.097C41.5411 256.391 41.3963 256.548 41.3821 256.537Z" fill="#E0E0E0"/>
<path d="M27.2462 254.925C27.2475 254.908 27.4469 254.911 27.8051 254.932C28.2173 254.963 28.723 255.001 29.3204 255.046C30.5985 255.152 32.3622 255.317 34.3091 255.515C36.2567 255.712 38.0177 255.904 39.2911 256.056C39.8851 256.131 40.3881 256.196 40.7976 256.248C41.1525 256.299 41.3485 256.336 41.3464 256.353C41.3444 256.37 41.1458 256.367 40.7875 256.346C40.3754 256.315 39.8696 256.277 39.2723 256.232C37.9941 256.126 36.2297 255.961 34.2829 255.764C32.336 255.567 30.5756 255.374 29.3015 255.223C28.7075 255.147 28.2045 255.083 27.795 255.03C27.4401 254.979 27.2442 254.942 27.2462 254.925Z" fill="#E0E0E0"/>
<path d="M32.9441 272.686C32.9455 272.668 33.2007 272.675 33.6593 272.702C34.165 272.738 34.8183 272.784 35.6015 272.84C37.2406 272.968 39.5026 273.162 42.0004 273.391C44.4988 273.62 46.7588 273.842 48.3932 274.014C49.1737 274.102 49.8236 274.175 50.328 274.232C50.7846 274.289 51.0357 274.328 51.0337 274.346C51.0317 274.363 50.7778 274.356 50.3185 274.329C49.8128 274.293 49.1602 274.247 48.3764 274.191C46.7373 274.063 44.4745 273.869 41.9768 273.64C39.4797 273.411 37.2197 273.19 35.5853 273.017C34.8048 272.929 34.1549 272.856 33.6505 272.799C33.1939 272.743 32.9421 272.703 32.9441 272.686Z" fill="#E0E0E0"/>
<path d="M50.6122 274.186C50.598 274.176 50.7421 273.948 51.0149 273.543C51.3145 273.103 51.7065 272.529 52.1779 271.838C53.1577 270.396 54.5039 268.4 55.9268 266.156C57.3532 263.913 58.5903 261.848 59.4751 260.348C59.9008 259.628 60.2536 259.03 60.5243 258.572C60.7742 258.154 60.919 257.926 60.9345 257.934C60.95 257.943 60.8341 258.186 60.6112 258.619C60.3883 259.052 60.0556 259.674 59.6314 260.436C58.7856 261.96 57.5714 264.042 56.1423 266.289C54.7174 268.537 53.3449 270.522 52.326 271.939C51.8149 272.646 51.3947 273.215 51.0957 273.601C50.798 273.987 50.6263 274.196 50.6122 274.186Z" fill="#E0E0E0"/>
<path d="M195.073 103.797C195.616 99.9074 190.049 96.7076 185.865 96.375C183.871 96.2163 181.798 96.5171 179.908 95.8677C175.813 94.4606 174.177 89.2443 170.182 87.5823C167.195 86.3399 163.755 87.4462 160.86 88.8831C157.964 90.3199 155.102 92.1287 151.867 92.3332C149.053 92.5105 145.996 91.4819 143.534 92.8372C141.7 93.8471 140.738 95.9321 139.047 97.1618C137.393 98.365 135.235 98.6199 133.182 98.7302C131.129 98.8404 129.004 98.861 127.134 99.7043C125.265 100.548 123.719 102.497 124.107 104.488L195.073 103.797Z" fill="#EBEBEB"/>
<path d="M315.077 56.4765C315.799 51.306 308.398 47.0524 302.837 46.6108C300.185 46.4003 297.43 46.8001 294.918 45.9369C289.475 44.0664 287.301 37.1322 281.989 34.9231C278.019 33.2717 273.447 34.7418 269.597 36.6522C265.748 38.5625 261.944 40.9668 257.643 41.2384C253.902 41.4741 249.839 40.1063 246.566 41.9084C244.127 43.251 242.85 46.0219 240.602 47.6566C238.402 49.2562 235.533 49.5949 232.805 49.7409C230.076 49.887 227.251 49.9142 224.766 51.0364C222.281 52.1579 220.226 54.7488 220.742 57.3949L315.077 56.4765Z" fill="#F5F5F5"/>
<path d="M370.533 106.156C371.059 102.39 365.669 99.2932 361.619 98.9712C359.688 98.8178 357.683 99.1086 355.853 98.4798C351.889 97.118 350.306 92.0682 346.438 90.4594C343.546 89.2569 340.217 90.3272 337.414 91.7183C334.61 93.1094 331.84 94.8604 328.708 95.0576C325.984 95.2295 323.026 94.2335 320.642 95.5456C318.866 96.5237 317.936 98.5416 316.298 99.7315C314.697 100.896 312.608 101.143 310.621 101.249C308.633 101.356 306.576 101.376 304.767 102.193C302.958 103.01 301.461 104.896 301.837 106.823L370.533 106.156Z" fill="#F5F5F5"/>
<path d="M466.166 64.7142C466.661 61.1691 461.587 58.2528 457.775 57.95C455.957 57.8053 454.068 58.0795 452.346 57.4879C448.613 56.2057 447.122 51.4514 443.481 49.9369C440.759 48.8047 437.624 49.8127 434.985 51.1221C432.346 52.4315 429.738 54.0802 426.789 54.2661C424.224 54.4282 421.439 53.4899 419.195 54.7256C417.523 55.6459 416.646 57.5463 415.105 58.6671C413.597 59.7641 411.63 59.9958 409.759 60.0961C407.889 60.1963 405.952 60.2149 404.248 60.9838C402.544 61.7527 401.135 63.5289 401.489 65.343L466.166 64.7142Z" fill="#EBEBEB"/>
<path d="M408.505 281.994C409.795 282.517 410.758 283.667 411.255 284.952C411.751 286.238 411.821 287.651 411.689 289.02C411.435 291.669 409.961 294.367 408.361 296.509C406.066 294.608 405.483 291.227 405.297 289.494C405.001 286.754 406.155 281.628 408.505 281.994Z" fill="#FBC343"/>
<path d="M411.067 300.825C410.677 299.337 411.277 297.687 412.421 296.643C413.566 295.6 415.183 295.138 416.739 295.227C417.458 295.268 418.238 295.461 418.661 296.036C419.055 296.575 419.026 297.337 418.725 297.931C418.424 298.525 417.892 298.975 417.329 299.339C415.395 300.584 413.291 301.439 411.067 300.825Z" fill="#FBC343"/>
<path d="M408.323 308.985C408.31 308.982 408.336 308.789 408.393 308.441C408.457 308.057 408.539 307.562 408.639 306.967C408.865 305.735 409.153 303.972 410.088 302.248C411.01 300.529 412.322 299.252 413.435 298.609C413.987 298.28 414.473 298.082 414.816 297.976C414.985 297.916 415.123 297.892 415.215 297.868C415.307 297.848 415.356 297.84 415.358 297.846C415.374 297.888 414.579 298.045 413.508 298.724C412.435 299.384 411.168 300.648 410.26 302.338C409.344 304.026 409.035 305.766 408.775 306.992C408.65 307.609 408.548 308.11 408.468 308.454C408.388 308.799 408.336 308.988 408.323 308.985Z" fill="#263238"/>
<path d="M407.976 285.975C407.983 285.975 407.994 286.056 408.008 286.211C408.023 286.387 408.04 286.613 408.062 286.892C408.105 287.483 408.157 288.339 408.211 289.398C408.32 291.516 408.43 294.443 408.477 297.678C408.523 300.914 408.498 303.843 408.449 305.963C408.425 307.022 408.398 307.88 408.372 308.472C408.358 308.751 408.346 308.978 408.338 309.154C408.328 309.31 408.319 309.391 408.312 309.391C408.305 309.391 408.301 309.309 408.298 309.153C408.297 308.976 408.297 308.751 408.295 308.471C408.299 307.854 408.304 307.002 408.31 305.961C408.323 303.842 408.327 300.914 408.28 297.681C408.233 294.448 408.146 291.522 408.072 289.404C408.037 288.363 408.007 287.513 407.986 286.896C407.979 286.616 407.973 286.39 407.969 286.213C407.967 286.057 407.969 285.975 407.976 285.975Z" fill="#263238"/>
<path d="M407.19 302.506C406.616 299.316 404.375 296.463 401.386 295.118C400.625 294.776 399.635 294.56 399.025 295.125C398.414 295.691 398.572 296.683 398.89 297.448C400.215 300.629 403.654 302.829 407.14 302.724" fill="#FBC343"/>
<path d="M401.799 297.619C401.805 297.608 401.977 297.678 402.282 297.817C402.436 297.885 402.624 297.969 402.829 298.092C403.035 298.213 403.282 298.33 403.526 298.505C403.776 298.673 404.054 298.85 404.325 299.076C404.61 299.287 404.888 299.542 405.179 299.813C405.746 300.368 406.318 301.032 406.811 301.804C407.297 302.58 407.653 303.379 407.905 304.127C408.02 304.504 408.13 304.864 408.191 305.21C408.274 305.551 408.308 305.876 408.344 306.172C408.392 306.467 408.383 306.738 408.397 306.973C408.413 307.208 408.4 307.411 408.39 307.577C408.372 307.909 408.355 308.091 408.342 308.091C408.297 308.09 408.361 307.355 408.207 306.188C408.163 305.897 408.121 305.578 408.032 305.243C407.965 304.904 407.851 304.552 407.734 304.182C407.476 303.449 407.122 302.668 406.645 301.905C406.161 301.147 405.602 300.491 405.051 299.938C404.769 299.669 404.499 299.412 404.222 299.199C403.959 298.971 403.689 298.789 403.447 298.617C402.466 297.95 401.781 297.657 401.799 297.619Z" fill="#263238"/>
<path d="M33.2162 259.558C32.2128 261.206 30.008 260.836 28.9352 259.947C27.8617 259.058 27.3385 257.698 26.8577 256.4C25.7586 253.434 24.6421 250.319 25.0798 247.191C25.2105 246.256 25.4946 245.313 26.1028 244.584C26.7109 243.855 27.692 243.378 28.6328 243.555C29.746 243.764 30.5002 244.772 31.0626 245.742C32.7151 248.594 33.7125 251.813 33.9563 255.088C34.0708 256.617 34.0021 258.234 33.2162 259.558Z" fill="#FBC343"/>
<g opacity="0.2">
<path d="M33.2162 259.558C32.2128 261.206 30.008 260.836 28.9352 259.947C27.8617 259.058 27.3385 257.698 26.8577 256.4C25.7586 253.434 24.6421 250.319 25.0798 247.191C25.2105 246.256 25.4946 245.313 26.1028 244.584C26.7109 243.855 27.692 243.378 28.6328 243.555C29.746 243.764 30.5002 244.772 31.0626 245.742C32.7151 248.594 33.7125 251.813 33.9563 255.088C34.0708 256.617 34.0021 258.234 33.2162 259.558Z" fill="black"/>
</g>
<path d="M29.6032 267.8C27.7136 266.999 25.5573 267.027 23.5558 267.496C22.481 267.749 21.3692 268.148 20.6864 269.005C20.0035 269.862 19.9638 271.289 20.8635 271.923C21.3988 272.3 22.1086 272.314 22.7646 272.261C24.3485 272.133 26.0872 271.736 27.4206 272.589C28.1809 273.075 28.7257 273.934 29.6079 274.138C30.4713 274.338 31.3898 273.78 31.7844 272.997C32.1791 272.214 32.1272 271.273 31.8578 270.44C31.8578 270.44 31.507 268.608 29.6032 267.8Z" fill="#FBC343"/>
<path d="M36.4392 261.6C35.1274 260.267 34.7509 258.216 35.163 256.404C35.5759 254.592 36.6857 252.997 38.0009 251.667C39.543 250.108 41.3963 248.85 43.4233 247.985C44.2213 247.645 45.0678 247.362 45.9372 247.383C46.8059 247.405 47.7063 247.78 48.1629 248.509C48.8377 249.588 48.3636 250.985 47.8248 252.135C46.876 254.163 45.7655 256.115 44.5062 257.971C43.4933 259.463 42.3169 260.948 40.6656 261.705C39.0137 262.462 37.246 262.508 36.2634 261.41" fill="#FBC343"/>
<path d="M34.9765 283.244C34.9556 283.246 34.9038 282.994 34.825 282.537C34.7368 282.021 34.6263 281.374 34.4943 280.603C34.3441 279.79 34.1536 278.823 33.8472 277.777C33.5414 276.734 33.0997 275.611 32.5542 274.478C31.9925 273.354 31.3339 272.342 30.5911 271.548C29.8531 270.75 29.0207 270.193 28.255 269.891C27.4907 269.583 26.8179 269.482 26.3553 269.449C25.8899 269.435 25.6286 269.417 25.6273 269.396C25.6259 269.376 25.8845 269.355 26.36 269.334C26.8321 269.333 27.5304 269.403 28.3338 269.698C29.1392 269.985 30.0201 270.548 30.7925 271.362C31.5703 272.171 32.2525 273.204 32.8235 274.348C33.3785 275.5 33.8162 276.636 34.1132 277.703C34.4095 278.768 34.5798 279.747 34.7038 280.569C34.8256 281.391 34.8964 282.059 34.9408 282.521C34.9839 282.984 34.9974 283.241 34.9765 283.244Z" fill="#263238"/>
<path d="M34.7341 281.754C34.724 281.754 34.7091 281.641 34.691 281.424C34.6741 281.175 34.6526 280.862 34.6263 280.478C34.5704 279.656 34.4849 278.466 34.3361 277.001C34.0532 274.069 33.5084 270.033 32.6963 265.611C31.8801 261.188 30.9339 257.224 30.1265 254.388C29.9325 253.677 29.7433 253.038 29.5675 252.479C29.3978 251.919 29.253 251.436 29.119 251.046C29.0012 250.678 28.9055 250.378 28.8288 250.141C28.7655 249.932 28.7372 249.821 28.7466 249.818C28.756 249.815 28.8039 249.918 28.8853 250.12C28.9756 250.353 29.0894 250.647 29.2288 251.008C29.3803 251.393 29.5419 251.872 29.7271 252.429C29.9184 252.984 30.1224 253.621 30.3298 254.33C31.1918 257.157 32.173 261.125 32.9912 265.557C33.8054 269.988 34.3179 274.039 34.5469 276.982C34.6694 278.452 34.7226 279.646 34.7428 280.472C34.7462 280.858 34.7489 281.172 34.7516 281.422C34.7502 281.64 34.7442 281.754 34.7341 281.754Z" fill="#263238"/>
<path d="M34.1563 273.914C34.1354 273.915 34.1138 273.563 34.0929 272.924C34.0849 272.286 34.1078 271.361 34.2095 270.223C34.3219 269.087 34.4963 267.735 34.8155 266.257C35.1139 264.775 35.5543 263.167 36.1429 261.522C37.2877 258.214 38.9672 255.459 40.475 253.72C40.8252 253.262 41.2272 252.921 41.5444 252.592C41.7094 252.434 41.8542 252.277 42.0044 252.151C42.1559 252.032 42.2966 251.921 42.4266 251.819C42.9351 251.422 43.2213 251.211 43.2334 251.227C43.2859 251.288 42.0926 252.096 40.638 253.854C39.1895 255.607 37.5611 258.341 36.4257 261.621C35.8425 263.252 35.3974 264.846 35.0863 266.314C34.7543 267.779 34.5596 269.118 34.4209 270.245C34.293 271.373 34.2377 272.291 34.2101 272.926C34.1946 273.56 34.1771 273.913 34.1563 273.914Z" fill="#263238"/>
<path d="M420.378 130.833L414.961 121.42C417.358 117.584 418.743 113.069 418.743 108.233C418.743 94.3271 407.309 83.0537 393.207 83.0537C379.103 83.0537 367.669 94.3264 367.669 108.233C367.669 122.139 379.103 133.413 393.207 133.413C399.096 133.413 404.515 131.442 408.835 128.14L408.826 128.151L420.378 130.833Z" fill="white"/>
<path d="M420.378 130.833C419.77 130.696 416.149 129.884 408.805 128.235L408.674 128.205L408.756 128.098L408.765 128.087L408.887 128.208C406 130.438 401.843 132.609 396.625 133.308C395.328 133.472 393.972 133.578 392.579 133.51C391.883 133.472 391.174 133.455 390.46 133.396C389.75 133.291 389.029 133.184 388.3 133.075C385.406 132.512 382.446 131.429 379.686 129.741C376.928 128.058 374.373 125.774 372.325 122.966C370.281 120.164 368.731 116.841 368.005 113.229C367.286 109.623 367.345 105.758 368.306 102.016C369.273 98.2886 371.08 94.6459 373.785 91.6499L374.829 90.5171C375.172 90.136 375.581 89.8226 375.953 89.4726C376.342 89.142 376.693 88.7681 377.112 88.476L378.339 87.5716C378.736 87.2549 379.174 86.9999 379.609 86.7429L380.906 85.9667C381.36 85.7496 381.812 85.5325 382.263 85.3167C382.719 85.1095 383.156 84.8645 383.634 84.7157C387.347 83.2622 391.307 82.7091 395.093 82.98C398.879 83.249 402.502 84.3207 405.61 86.0457C408.727 87.7569 411.356 90.0423 413.384 92.5941C415.42 95.1472 416.853 97.9632 417.74 100.767C418.622 103.585 418.859 106.378 418.849 108.964C418.699 114.173 416.929 118.45 415.031 121.461L415.032 121.377C418.436 127.398 420.088 130.319 420.378 130.833C420.08 130.325 418.383 127.428 414.888 121.461L414.863 121.418L414.889 121.376C416.752 118.37 418.482 114.119 418.608 108.959C418.606 106.397 418.36 103.632 417.48 100.848C416.593 98.0774 415.167 95.2972 413.149 92.7787C411.138 90.2608 408.536 88.0092 405.455 86.3246C402.383 84.6261 398.806 83.5743 395.069 83.3134C391.332 83.0504 387.426 83.5996 383.764 85.0351C383.293 85.1819 382.861 85.4242 382.412 85.6287C381.967 85.8419 381.52 86.0557 381.073 86.2702L379.794 87.0364C379.365 87.2901 378.933 87.5411 378.542 87.8538L377.332 88.7462C376.919 89.0337 376.573 89.4036 376.189 89.7296C375.823 90.0749 375.418 90.3836 375.08 90.7595L374.05 91.877C371.381 94.8324 369.599 98.424 368.643 102.101C367.693 105.79 367.63 109.604 368.336 113.164C369.048 116.729 370.574 120.01 372.587 122.781C374.605 125.556 377.123 127.819 379.846 129.488C382.569 131.163 385.492 132.242 388.352 132.807C389.074 132.917 389.786 133.025 390.488 133.132C391.195 133.192 391.896 133.211 392.586 133.252C393.965 133.323 395.308 133.224 396.593 133.067C401.762 132.396 405.896 130.267 408.78 128.072L409.318 127.663L408.903 128.192L408.895 128.203L408.846 128.067C416.163 129.822 419.773 130.688 420.378 130.833Z" fill="#263238"/>
<path d="M396.043 121.903C403.7 120.763 408.971 113.718 407.814 106.169C406.658 98.6187 399.514 93.4224 391.857 94.5624C384.199 95.7023 378.929 102.747 380.086 110.297C381.242 117.847 388.386 123.043 396.043 121.903Z" fill="#FBC343"/>
<path d="M401.248 106.494H386.647V109.498H401.248V106.494Z" fill="#EAEAEA"/>
<path d="M397.628 186.968C397.628 186.968 396.673 190.97 391.777 191.264C386.883 191.559 378.764 191.618 378.764 191.618L372.022 188.541L369.494 179.428L377.033 182.804L397.628 186.968Z" fill="#263238"/>
<path d="M397.628 186.968C397.628 186.968 401.263 181.071 394.389 177.319C387.515 173.568 376.469 176.472 376.469 176.472L377.45 187.485L397.628 186.968Z" fill="#FBC343"/>
<path d="M378.079 309.296H375.181C367.832 309.296 361.875 303.422 361.875 296.177V253.937C361.875 246.691 367.832 240.818 375.181 240.818H378.079C385.428 240.818 391.385 246.691 391.385 253.937V296.177C391.384 303.422 385.428 309.296 378.079 309.296Z" fill="#263238"/>
<path d="M196.853 309.296H193.955C186.606 309.296 180.649 303.422 180.649 296.177V253.937C180.649 246.691 186.606 240.818 193.955 240.818H196.853C204.202 240.818 210.158 246.691 210.158 253.937V296.177C210.159 303.422 204.202 309.296 196.853 309.296Z" fill="#263238"/>
<path d="M189.294 283.727C189.294 283.727 179.159 264.624 178.862 241.994C178.564 219.364 181.544 210.254 186.91 205.845C192.275 201.436 198.236 191.737 198.236 191.737C198.236 191.737 204.358 167.773 212.842 152.355C220.585 138.282 234.898 139.718 234.898 139.718C234.898 139.718 297.791 134.16 337.136 139.584C337.136 139.584 347.867 138.836 355.616 150.593C363.366 162.349 372.01 182.921 374.097 193.502C374.097 193.502 383.337 202.318 386.02 206.433C388.703 210.548 393.471 217.895 392.875 224.949C392.279 232.002 392.577 271.678 382.741 284.903L189.294 283.727Z" fill="#FBC343"/>
<path d="M207.039 180.884C207.039 180.884 212.852 153.327 220.724 148.777C228.596 144.227 285.177 144.424 285.177 144.424L340.023 145.961C340.023 145.961 349.659 146.235 352.781 151.32C355.902 156.405 364.995 180.492 363.91 182.232L279.491 183.169C279.491 183.169 220.045 184.239 217.602 183.704C215.16 183.169 207.559 183.854 207.039 180.884Z" fill="#263238"/>
<path d="M216.772 180.884C216.772 180.884 211.627 180.138 212.291 174.575C212.807 170.254 218.042 158.191 220.354 153.019C221.028 151.512 222.445 150.466 224.102 150.257C231.217 149.354 249.207 146.389 281.231 146.666C322.041 147.018 346.976 147.753 349.22 150.616C351.026 152.922 358.02 171.339 358.837 174.044C359.78 177.168 355.491 180.648 349.352 180.812C343.211 180.975 216.772 180.884 216.772 180.884Z" fill="#455A64"/>
<g opacity="0.4">
<path d="M340.579 242.036C335.911 233.481 323.155 234.729 323.155 234.729C323.155 234.729 257.415 234.508 250.485 234.729C243.555 234.949 241.766 234.982 237.519 239.391C233.271 243.799 220.286 269.981 220.286 269.981H353.992C353.992 269.981 345.867 251.728 340.579 242.036Z" fill="black"/>
</g>
<path d="M235.722 208.894L239.132 216.655C239.132 216.655 240.579 219.674 246.57 220.146C251.228 220.514 327.124 220.497 327.124 220.497C327.124 220.497 332.178 220.931 334.155 217.464C336.132 213.998 338.11 208.894 338.11 208.894H235.722Z" fill="#263238"/>
<path d="M189.111 218.854C189.111 218.854 189.111 212.401 189.678 208.568C189.893 207.122 192.7 201.922 200.96 201.049C203.105 200.823 204.942 200.714 206.485 200.677C211.876 200.547 217.144 202.64 220.748 206.596C221.895 207.855 222.937 209.339 223.674 211.055C226.624 217.919 228.099 226.354 228.099 226.354L189.111 218.854Z" fill="#EAEAEA"/>
<g opacity="0.3">
<path d="M189.734 218.854H189.112C189.112 218.854 187.001 225.144 191.948 227.84C195.214 229.62 206.194 231.369 213.279 232.351C217.232 232.9 221.235 231.812 224.342 229.342L228.099 226.354L189.734 218.854Z" fill="black"/>
</g>
<path d="M223.327 147.243C223.327 147.243 225.194 139.237 227.822 136.566C230.45 133.894 233.539 133.959 235.275 134.883C236.826 135.708 239.067 139.383 239.067 139.383L234.753 139.696C234.753 139.696 233.837 138.178 232.177 138.643C230.618 139.079 229.539 141.916 229.539 141.916L227.675 146.561L223.327 147.243Z" fill="#E0E0E0"/>
<path d="M344.044 146.646C344.044 146.646 342.176 138.641 339.548 135.969C336.921 133.297 333.832 133.362 332.096 134.286C330.544 135.111 328.304 138.786 328.304 138.786L332.618 139.099C332.618 139.099 333.533 137.581 335.193 138.046C336.752 138.483 337.832 141.319 337.832 141.319L339.695 145.964L344.044 146.646Z" fill="#E0E0E0"/>
<path d="M333.793 205.357C333.793 205.453 311.702 205.53 284.457 205.53C257.204 205.53 235.117 205.453 235.117 205.357C235.117 205.262 257.204 205.185 284.457 205.185C311.702 205.184 333.793 205.262 333.793 205.357Z" fill="#263238"/>
<g opacity="0.3">
<path d="M188.664 244.696C188.664 244.696 188.227 260.165 196.955 260.934L202.887 261.483C205.631 261.736 208.288 260.455 209.769 258.163L215.158 249.824L188.664 244.696Z" fill="black"/>
</g>
<g opacity="0.3">
<path d="M183.738 269.981L388.672 269.856C387.507 275.444 385.645 280.54 382.74 284.902L189.294 283.727C187 279.128 185.218 274.549 183.738 269.981Z" fill="black"/>
</g>
<path d="M173.398 186.968C173.398 186.968 174.353 190.97 179.248 191.264C184.143 191.559 192.261 191.618 192.261 191.618L199.041 188.761L201.84 179.428L193.992 182.804L173.398 186.968Z" fill="#263238"/>
<path d="M173.398 186.968C173.398 186.968 169.762 181.071 176.636 177.319C183.51 173.568 194.557 176.472 194.557 176.472L193.575 187.485L173.398 186.968Z" fill="#FBC343"/>
<path d="M313.384 258.127H259.644C256.026 258.127 253.092 255.235 253.092 251.667V250.26C253.092 246.693 256.026 243.8 259.644 243.8H313.384C317.002 243.8 319.936 246.693 319.936 250.26V251.667C319.936 255.235 317.002 258.127 313.384 258.127Z" fill="#EAEAEA"/>
<path d="M207.851 181.04C207.892 181.107 206.654 181.743 204.946 183.153C204.521 183.508 204.059 183.9 203.608 184.368C203.129 184.808 202.682 185.339 202.197 185.883C201.272 187.008 200.35 188.321 199.555 189.799C198.779 191.288 198.213 192.785 197.807 194.177C197.632 194.881 197.445 195.545 197.352 196.184C197.221 196.817 197.159 197.415 197.106 197.961C196.91 200.15 197.087 201.515 197.009 201.519C196.984 201.522 196.94 201.183 196.879 200.566C196.844 200.257 196.813 199.879 196.822 199.438C196.825 198.998 196.799 198.494 196.859 197.942C196.896 197.387 196.945 196.78 197.065 196.137C197.147 195.487 197.325 194.81 197.494 194.094C197.89 192.676 198.455 191.151 199.244 189.639C200.051 188.138 200.997 186.808 201.95 185.678C202.449 185.132 202.91 184.601 203.404 184.163C203.871 183.698 204.348 183.311 204.788 182.965C205.213 182.599 205.647 182.333 206.012 182.079C206.375 181.82 206.707 181.628 206.983 181.481C207.532 181.176 207.839 181.019 207.851 181.04Z" fill="#263238"/>
<path d="M342.157 226.354C342.157 226.45 316.729 226.576 285.37 226.636C253.999 226.697 228.578 226.668 228.577 226.573C228.577 226.477 253.999 226.351 285.369 226.29C316.729 226.23 342.157 226.259 342.157 226.354Z" fill="#263238"/>
<path d="M295.578 151.691C295.627 151.773 286.471 157.193 275.13 163.795C263.784 170.4 254.55 175.686 254.501 175.604C254.452 175.522 263.606 170.103 274.951 163.498C286.292 156.896 295.528 151.608 295.578 151.691Z" fill="#E0E0E0"/>
<path d="M276.532 153.603C276.584 153.684 269.801 158.053 261.385 163.362C252.965 168.673 246.1 172.911 246.048 172.831C245.996 172.75 252.777 168.381 261.196 163.071C269.612 157.762 276.479 153.523 276.532 153.603Z" fill="#E0E0E0"/>
<path d="M305.627 152.608C305.68 152.687 299.629 156.754 292.112 161.691C284.592 166.629 278.454 170.568 278.401 170.488C278.347 170.408 284.397 166.342 291.918 161.404C299.434 156.467 305.573 152.528 305.627 152.608Z" fill="#E0E0E0"/>
<path d="M388.673 269.856C388.673 269.952 342.793 270.057 286.211 270.091C229.609 270.126 183.739 270.077 183.739 269.981C183.739 269.885 229.609 269.78 286.211 269.746C342.793 269.711 388.673 269.761 388.673 269.856Z" fill="#263238"/>
<path d="M373.323 205.371C373.297 205.362 373.412 204.982 373.599 204.292C373.787 203.602 374.048 202.6 374.245 201.341C374.444 200.085 374.575 198.567 374.456 196.893C374.318 195.228 374.065 193.361 373.202 191.628C372.358 189.883 371.279 188.35 370.196 187.055C369.111 185.757 368.005 184.696 366.987 183.92C365.974 183.139 365.038 182.657 364.348 182.47C364.011 182.338 363.732 182.326 363.545 182.294C363.357 182.265 363.257 182.243 363.257 182.231C363.257 182.22 363.357 182.218 363.549 182.225C363.741 182.235 364.034 182.226 364.384 182.341C365.106 182.494 366.085 182.956 367.136 183.725C368.192 184.49 369.332 185.549 370.445 186.852C371.556 188.154 372.657 189.697 373.519 191.482C373.947 192.369 374.27 193.309 374.435 194.219C374.619 195.13 374.73 196.021 374.779 196.873C374.881 198.578 374.723 200.117 374.49 201.382C374.259 202.649 373.959 203.649 373.73 204.33C373.619 204.672 373.516 204.932 373.447 205.108C373.377 205.284 373.335 205.375 373.323 205.371Z" fill="#263238"/>
<path d="M381.143 218.854C381.143 218.854 381.143 212.401 380.576 208.568C380.362 207.122 377.555 201.922 369.294 201.049C367.15 200.823 365.313 200.714 363.77 200.677C358.379 200.547 353.111 202.64 349.507 206.596C348.36 207.855 347.318 209.339 346.58 211.055C343.631 217.919 342.156 226.354 342.156 226.354L381.143 218.854Z" fill="#EAEAEA"/>
<g opacity="0.3">
<path d="M380.521 218.854H381.143C381.143 218.854 383.255 225.144 378.308 227.84C375.041 229.62 364.062 231.369 356.977 232.351C353.024 232.9 349.02 231.812 345.913 229.342L342.156 226.354L380.521 218.854Z" fill="black"/>
</g>
<g opacity="0.3">
<path d="M381.591 244.696C381.591 244.696 382.028 260.165 373.299 260.934L367.368 261.483C364.624 261.736 361.967 260.455 360.485 258.163L355.097 249.824L381.591 244.696Z" fill="black"/>
</g>
<path d="M99.1549 75.6429H92.593V89.6593H99.1549V75.6429Z" fill="#263238"/>
<path d="M144.095 47.8014H47.9185V76.3448H144.095V47.8014Z" fill="#F5F5F5"/>
<path d="M144.095 76.3447C144.095 76.3447 144.088 76.1728 144.084 75.8454C144.081 75.5114 144.077 75.028 144.073 74.3946C144.066 73.113 144.057 71.2306 144.046 68.7877C144.031 63.9007 144.011 56.7786 143.984 47.8007L144.095 47.9103C121.571 47.9249 86.8197 47.9481 47.9245 47.9733H47.9184L48.0935 47.8007C48.0922 57.6717 48.0902 67.2712 48.0888 76.3441L47.9184 76.1761C75.4987 76.2073 99.5199 76.2338 116.655 76.2531C125.229 76.273 132.077 76.2896 136.793 76.3009C139.147 76.3102 140.966 76.3175 142.206 76.3228C142.819 76.3275 143.287 76.3308 143.611 76.3334C143.928 76.3374 144.095 76.3447 144.095 76.3447C144.095 76.3447 143.943 76.352 143.633 76.3553C143.313 76.358 142.852 76.3613 142.249 76.366C141.016 76.3713 139.21 76.3786 136.872 76.3879C132.166 76.3992 125.33 76.4151 116.772 76.4357C99.6081 76.455 75.5458 76.4822 47.9184 76.5127H47.7481V76.3441C47.7467 67.2705 47.7447 57.6711 47.7433 47.8007V47.6281H47.9191H47.9252C86.8204 47.6533 121.573 47.6765 144.096 47.6911H144.208V47.8007C144.182 56.8065 144.161 63.9505 144.147 68.8535C144.134 71.2857 144.126 73.1595 144.12 74.4357C144.114 75.0606 144.111 75.5373 144.108 75.8673C144.103 76.1874 144.095 76.3447 144.095 76.3447Z" fill="#263238"/>
<path d="M159.578 282.424H12.3615V309.296H159.578V282.424Z" fill="#263238"/>
<path d="M136.981 85.0112H55.8864V282.424H136.981V85.0112Z" fill="#455A64"/>
<path d="M136.981 126.41H55.8864V196.685H136.981V126.41Z" fill="#263238"/>
<path d="M121.539 282.424H79.9756V226.497C79.9756 215.18 89.2797 206.007 100.758 206.007C112.235 206.007 121.539 215.18 121.539 226.497V282.424Z" fill="#263238"/>
<path d="M272.843 234.835H98.6861C94.2018 234.835 90.5666 231.251 90.5666 226.83C90.5666 222.408 94.2018 218.824 98.6861 218.824H272.843C277.328 218.824 280.963 222.409 280.963 226.83C280.962 231.251 277.327 234.835 272.843 234.835Z" fill="#FBC343"/>
<g opacity="0.5">
<path d="M98.8094 232.225C101.831 232.225 104.281 229.809 104.281 226.83C104.281 223.85 101.831 221.435 98.8094 221.435C95.7875 221.435 93.3378 223.85 93.3378 226.83C93.3378 229.809 95.7875 232.225 98.8094 232.225Z" fill="white"/>
</g>
<path d="M112.26 234.835L124.485 218.824H144.382L131.437 234.835H112.26Z" fill="white"/>
<path d="M155.063 234.835L167.288 218.824H187.185L174.241 234.835H155.063Z" fill="white"/>
<path d="M197.867 234.835L210.092 218.824H229.988L217.044 234.835H197.867Z" fill="white"/>
<path d="M240.67 234.835L252.895 218.824H272.792L259.847 234.835H240.67Z" fill="white"/>
<path d="M272.843 234.835C272.843 234.835 272.93 234.825 273.103 234.814C273.274 234.793 273.534 234.806 273.869 234.747C274.54 234.667 275.549 234.444 276.718 233.826C277.287 233.494 277.908 233.087 278.488 232.518C279.064 231.948 279.616 231.245 280.048 230.392C280.919 228.71 281.263 226.345 280.365 224.018C279.52 221.711 277.254 219.54 274.223 219.031C273.476 218.88 272.693 218.918 271.89 218.909C271.089 218.911 270.272 218.912 269.438 218.913C267.77 218.915 266.038 218.917 264.244 218.92C257.068 218.927 248.896 218.936 239.864 218.945C203.729 218.959 153.82 218.976 98.6962 218.996C97.01 219.009 95.3304 219.528 93.9876 220.524C92.6219 221.489 91.6279 222.912 91.1114 224.468C90.8697 225.255 90.7511 226.072 90.7464 226.891C90.7552 227.71 90.9006 228.522 91.1525 229.298C91.6785 230.84 92.6886 232.225 94.0287 233.164C95.3527 234.128 96.983 234.637 98.6127 234.659C100.278 234.66 101.937 234.662 103.589 234.664C106.894 234.664 110.173 234.665 113.422 234.665C126.421 234.668 138.959 234.671 150.904 234.675C174.792 234.689 196.303 234.701 214.37 234.712C232.432 234.735 247.048 234.754 257.156 234.767C262.203 234.781 266.124 234.792 268.789 234.8C270.115 234.807 271.127 234.813 271.814 234.817C272.494 234.824 272.843 234.835 272.843 234.835C272.843 234.835 272.495 234.847 271.813 234.853C271.126 234.857 270.114 234.863 268.788 234.871C266.123 234.878 262.203 234.889 257.155 234.903C247.048 234.916 232.431 234.935 214.369 234.958C196.302 234.969 174.791 234.982 150.903 234.996C138.958 234.999 126.42 235.002 113.421 235.005C110.171 235.006 106.893 235.006 103.588 235.007C101.935 235.005 100.275 235.005 98.6087 235.003C96.909 234.982 95.2045 234.45 93.8226 233.444C92.4246 232.464 91.3687 231.02 90.8198 229.409C90.5565 228.599 90.405 227.751 90.3956 226.896C90.4003 226.042 90.5235 225.188 90.7767 224.367C91.3155 222.741 92.3546 221.256 93.7796 220.247C95.1816 219.208 96.9379 218.664 98.6962 218.652C153.82 218.672 203.729 218.69 239.864 218.703C248.896 218.712 257.068 218.721 264.244 218.729C266.038 218.731 267.77 218.733 269.438 218.735C270.272 218.737 271.089 218.738 271.89 218.739C272.686 218.749 273.488 218.714 274.252 218.87C277.345 219.4 279.644 221.621 280.493 223.971C281.396 226.342 281.033 228.74 280.141 230.439C279.698 231.3 279.135 232.009 278.549 232.581C277.958 233.152 277.328 233.559 276.751 233.887C275.566 234.501 274.549 234.713 273.873 234.782C273.194 234.849 272.843 234.835 272.843 234.835Z" fill="#263238"/>
<path d="M129.374 107.148C129.374 107.243 115.411 107.32 98.1925 107.32C80.9676 107.32 67.0081 107.243 67.0081 107.148C67.0081 107.052 80.9669 106.975 98.1925 106.975C115.411 106.975 129.374 107.052 129.374 107.148Z" fill="#263238"/>
<path d="M129.374 101.478C129.374 101.573 115.411 101.65 98.1925 101.65C80.9676 101.65 67.0081 101.573 67.0081 101.478C67.0081 101.382 80.9669 101.305 98.1925 101.305C115.411 101.305 129.374 101.383 129.374 101.478Z" fill="#263238"/>
<path d="M129.374 112.599C129.374 112.695 115.411 112.772 98.1925 112.772C80.9676 112.772 67.0081 112.694 67.0081 112.599C67.0081 112.504 80.9669 112.427 98.1925 112.427C115.411 112.426 129.374 112.504 129.374 112.599Z" fill="#263238"/>
<path d="M159.578 282.424C159.578 282.52 126.62 282.597 85.9732 282.597C45.3123 282.597 12.3615 282.519 12.3615 282.424C12.3615 282.329 45.313 282.252 85.9732 282.252C126.62 282.252 159.578 282.329 159.578 282.424Z" fill="#455A64"/>
<path d="M43.1586 309.702C43.0617 309.702 42.9836 303.566 42.9836 295.997C42.9836 288.427 43.0623 282.292 43.1586 282.292C43.2556 282.292 43.3337 288.427 43.3337 295.997C43.3337 303.566 43.2549 309.702 43.1586 309.702Z" fill="#455A64"/>
<path d="M59.7775 309.702C59.6805 309.702 59.6024 303.566 59.6024 295.997C59.6024 288.427 59.6812 282.292 59.7775 282.292C59.8745 282.292 59.9526 288.427 59.9526 295.997C59.9533 303.566 59.8745 309.702 59.7775 309.702Z" fill="#455A64"/>
<path d="M76.397 309.702C76.3001 309.702 76.222 303.566 76.222 295.997C76.222 288.427 76.3007 282.292 76.397 282.292C76.4933 282.292 76.5721 288.427 76.5721 295.997C76.5721 303.566 76.494 309.702 76.397 309.702Z" fill="#455A64"/>
<path d="M93.0166 309.702C92.9196 309.702 92.8415 303.566 92.8415 295.997C92.8415 288.427 92.9203 282.292 93.0166 282.292C93.1136 282.292 93.1917 288.427 93.1917 295.997C93.1917 303.566 93.1136 309.702 93.0166 309.702Z" fill="#455A64"/>
<path d="M109.636 309.702C109.539 309.702 109.461 303.566 109.461 295.997C109.461 288.427 109.54 282.292 109.636 282.292C109.732 282.292 109.811 288.427 109.811 295.997C109.811 303.566 109.732 309.702 109.636 309.702Z" fill="#455A64"/>
<path d="M126.255 309.702C126.158 309.702 126.08 303.566 126.08 295.997C126.08 288.427 126.159 282.292 126.255 282.292C126.352 282.292 126.43 288.427 126.43 295.997C126.431 303.566 126.352 309.702 126.255 309.702Z" fill="#455A64"/>
<path d="M142.874 309.702C142.777 309.702 142.699 303.566 142.699 295.997C142.699 288.427 142.778 282.292 142.874 282.292C142.971 282.292 143.05 288.427 143.05 295.997C143.05 303.566 142.971 309.702 142.874 309.702Z" fill="#455A64"/>
<path d="M78.2678 63.2188C78.2678 64.5607 77.2011 65.3436 75.1593 65.3436H71.2116V57.5137H74.9323C76.8381 57.5137 77.859 58.3078 77.859 59.5495C77.859 60.3549 77.4509 60.9472 76.8381 61.2719C77.6893 61.5408 78.2678 62.2008 78.2678 63.2188ZM72.6864 58.6551V60.8138H74.7741C75.795 60.8138 76.3735 60.4559 76.3735 59.7401C76.3735 59.013 75.795 58.6551 74.7741 58.6551H72.6864ZM76.7816 63.0727C76.7816 62.2898 76.1802 61.9432 75.0684 61.9432H72.6858V64.2028H75.0684C76.1802 64.2028 76.7816 63.8562 76.7816 63.0727Z" fill="#263238"/>
<path d="M79.2746 61.4286C79.2746 59.1132 81.0895 57.4021 83.5515 57.4021C86.0129 57.4021 87.8285 59.1026 87.8285 61.4286C87.8285 63.7553 86.0136 65.4551 83.5515 65.4551C81.0895 65.4558 79.2746 63.744 79.2746 61.4286ZM86.3416 61.4286C86.3416 59.829 85.1509 58.677 83.5515 58.677C81.9515 58.677 80.7602 59.829 80.7602 61.4286C80.7602 63.0275 81.9515 64.1802 83.5515 64.1802C85.1509 64.1802 86.3416 63.0282 86.3416 61.4286Z" fill="#263238"/>
<path d="M94.5863 65.3436L92.964 63.0508C92.8624 63.0621 92.76 63.0621 92.6583 63.0621H90.8656V65.3436H89.3908V57.5137H92.6583C94.7459 57.5137 96.0389 58.5654 96.0389 60.2985C96.0389 61.4844 95.4261 62.3569 94.3486 62.7712L96.1749 65.3436H94.5863ZM92.5896 58.7441H90.865V61.8642H92.5896C93.8826 61.8642 94.552 61.2825 94.552 60.2985C94.552 59.3144 93.8826 58.7441 92.5896 58.7441Z" fill="#263238"/>
<path d="M97.6801 57.5137H101.152C103.727 57.5137 105.485 59.0794 105.485 61.4286C105.485 63.7772 103.727 65.3436 101.152 65.3436H97.6801V57.5137ZM101.084 64.1138C102.853 64.1138 103.999 63.0508 103.999 61.4293C103.999 59.8071 102.853 58.7447 101.084 58.7447H99.1549V64.1138H101.084Z" fill="#263238"/>
<path d="M113.003 64.1245V65.3436H107.047V57.5137H112.844V58.7328H108.522V60.7686H112.357V61.9658H108.522V64.1245H113.003Z" fill="#263238"/>
<path d="M119.842 65.3436L118.22 63.0508C118.118 63.0621 118.016 63.0621 117.913 63.0621H116.121V65.3436H114.646V57.5137H117.913C120.001 57.5137 121.294 58.5654 121.294 60.2985C121.294 61.4844 120.681 62.3569 119.604 62.7712L121.43 65.3436H119.842ZM117.845 58.7441H116.121V61.8642H117.845C119.138 61.8642 119.808 61.2825 119.808 60.2985C119.808 59.3144 119.138 58.7441 117.845 58.7441Z" fill="#263238"/>
<path d="M27.6496 309.565C27.5526 309.565 27.4745 303.429 27.4745 295.86C27.4745 288.29 27.5533 282.155 27.6496 282.155C27.7466 282.155 27.8247 288.289 27.8247 295.86C27.8247 303.429 27.7459 309.565 27.6496 309.565Z" fill="#455A64"/>
<path d="M122.697 135.109H72.7457V186.273H122.697V135.109Z" fill="white"/>
<path d="M97.6302 180.795C86.6035 180.795 77.6321 171.95 77.6321 161.077C77.6321 150.205 86.6028 141.359 97.6302 141.359C108.658 141.359 117.628 150.204 117.628 161.077C117.628 171.949 108.657 180.795 97.6302 180.795ZM97.6302 142.686C87.3463 142.686 78.979 150.936 78.979 161.076C78.979 171.217 87.3456 179.467 97.6302 179.467C107.914 179.467 116.281 171.216 116.281 161.076C116.281 150.937 107.914 142.686 97.6302 142.686Z" fill="#263238"/>
<path d="M76.8106 132.951H75.1142V136.668H76.8106V132.951Z" fill="#E0E0E0"/>
<path d="M121.01 132.951H119.313V136.668H121.01V132.951Z" fill="#E0E0E0"/>
<path d="M75.7741 183.872H74.0777V187.589H75.7741V183.872Z" fill="#E0E0E0"/>
<path d="M121.01 183.872H119.313V187.589H121.01V183.872Z" fill="#E0E0E0"/>
<path d="M464.207 213.335C464.056 213.774 463.865 214.285 463.611 214.876C463.394 215.384 463.086 215.848 462.709 216.255C462.252 216.748 461.617 217.379 461.161 217.617C460.596 217.913 460.69 218.731 461.264 218.813C461.839 218.896 463.415 218.119 464.662 216.504C465.909 214.891 466.012 218.082 466.071 219.244C466.129 220.407 466.482 223.994 466.859 224.26C467.411 224.649 467.935 224.137 467.85 222.978C467.763 221.805 467.755 218.323 468.379 218.323C468.994 218.322 469.21 224.243 469.21 224.243C469.21 224.243 469.049 225.516 469.77 225.538C471.071 225.579 470.371 219.301 470.289 218.706C470.233 218.291 470.911 218.267 470.947 218.714C470.985 219.175 471.023 224.625 472.348 224.68C473.364 224.721 471.82 219.51 472.449 218.376C473.078 217.241 473.212 222.444 474.184 222.445C474.547 222.445 474.817 222.395 474.302 219.418C474.052 217.973 473.253 211.26 473.253 211.26L475.08 206.125L467.248 202.888L464.207 213.335Z" fill="#263238"/>
<path d="M468.337 151.841C468.337 151.841 473.579 155.453 474.593 160.62C475.318 164.311 476.969 188.039 476.969 188.039C476.969 188.039 478.4 195.011 478.538 197.26C478.677 199.511 476.269 204.594 476.269 204.594L475.163 209.883L470.313 210.173L465.684 197.747L468.337 151.841Z" fill="#455A64"/>
<path d="M481.357 296.333L484.649 308.336L473.949 309.299L471.7 297.872L481.357 296.333Z" fill="#FBC343"/>
<path d="M473.638 308.321C473.641 308.36 474.241 308.346 475.205 308.269C476.17 308.192 477.498 308.047 478.96 307.862C480.368 307.676 481.642 307.507 482.7 307.367C483.656 307.235 484.247 307.145 484.243 307.104C484.24 307.065 483.641 307.081 482.676 307.161C481.712 307.239 480.384 307.386 478.922 307.571C477.514 307.757 476.24 307.924 475.182 308.063C474.226 308.192 473.634 308.279 473.638 308.321Z" fill="#263238"/>
<g opacity="0.6">
<path d="M484.649 308.336L473.949 309.299L473.776 308.419L484.34 307.095L484.639 308.217" fill="white"/>
</g>
<path d="M479.333 307.802C479.401 307.785 478.945 305.726 478.316 303.203C477.686 300.679 477.122 298.647 477.054 298.663C476.987 298.68 477.442 300.738 478.072 303.262C478.701 305.785 479.266 307.818 479.333 307.802Z" fill="#263238"/>
<path d="M474.229 308.243C474.295 308.241 473.888 307.382 474.205 306.012C474.369 305.344 474.724 304.568 475.376 303.923C476.019 303.276 476.982 302.824 478.039 302.717C479.098 302.617 480.131 302.868 480.905 303.359C481.689 303.843 482.228 304.504 482.571 305.105C483.252 306.335 483.186 307.261 483.247 307.245C483.255 307.245 483.261 307.191 483.262 307.086C483.268 306.981 483.258 306.828 483.237 306.629C483.192 306.235 483.057 305.662 482.727 305.022C482.393 304.39 481.847 303.687 481.028 303.166C480.219 302.638 479.129 302.364 478.013 302.471C476.9 302.582 475.882 303.068 475.211 303.763C474.53 304.453 474.178 305.275 474.031 305.975C473.89 306.682 473.939 307.271 474.027 307.659C474.073 307.854 474.117 308.002 474.159 308.099C474.198 308.196 474.221 308.246 474.229 308.243Z" fill="#263238"/>
<path d="M437.175 293.112L437.891 303.776C437.891 303.776 427.126 307.299 427.065 309.282L448.097 309.432L447.672 292.771L437.175 293.112Z" fill="#FBC343"/>
<g opacity="0.6">
<path d="M444.364 302.684C444.774 302.782 445.069 303.225 444.986 303.633C444.904 304.041 444.45 304.341 444.039 304.25C443.627 304.16 443.256 303.639 443.384 303.243C443.512 302.847 444.064 302.523 444.442 302.708" fill="white"/>
</g>
<g opacity="0.6">
<path d="M448.096 309.432L448.053 307.753L427.739 308.306C427.739 308.306 427.064 308.593 426.957 309.432H448.096Z" fill="white"/>
</g>
<path d="M437.547 303.681C437.554 303.782 438.068 303.813 438.584 304.123C439.107 304.421 439.381 304.851 439.474 304.808C439.568 304.785 439.396 304.185 438.766 303.82C438.139 303.449 437.522 303.589 437.547 303.681Z" fill="#263238"/>
<path d="M435.37 304.646C435.349 304.745 435.799 304.903 436.161 305.321C436.536 305.728 436.638 306.188 436.74 306.181C436.837 306.194 436.89 305.599 436.43 305.088C435.975 304.573 435.369 304.549 435.37 304.646Z" fill="#263238"/>
<path d="M434.197 307.285C434.291 307.304 434.418 306.794 434.138 306.247C433.861 305.699 433.371 305.495 433.33 305.58C433.275 305.665 433.595 305.953 433.819 306.405C434.053 306.852 434.095 307.278 434.197 307.285Z" fill="#263238"/>
<path d="M437.657 301.233C437.703 301.324 438.17 301.171 438.751 301.192C439.333 301.202 439.79 301.38 439.841 301.292C439.898 301.217 439.446 300.856 438.761 300.84C438.076 300.818 437.604 301.155 437.657 301.233Z" fill="#263238"/>
<g opacity="0.3">
<path d="M437.319 295.224L437.444 297.125L447.772 296.724L447.733 295.009L437.319 295.224Z" fill="black"/>
</g>
<path d="M437.553 299.078C437.553 299.12 437.961 299.171 438.606 299.042C438.927 298.977 439.303 298.862 439.697 298.675C439.893 298.582 440.093 298.471 440.291 298.341C440.386 298.276 440.499 298.211 440.602 298.087C440.712 297.978 440.769 297.708 440.632 297.547C440.52 297.391 440.327 297.328 440.175 297.329C440.021 297.329 439.896 297.364 439.782 297.395C439.55 297.458 439.333 297.541 439.134 297.636C438.738 297.828 438.419 298.066 438.183 298.293C437.709 298.754 437.554 299.136 437.589 299.155C437.637 299.186 437.865 298.862 438.35 298.481C438.592 298.29 438.902 298.092 439.272 297.931C439.458 297.851 439.659 297.782 439.871 297.729C440.092 297.665 440.281 297.657 440.342 297.754C440.363 297.79 440.367 297.805 440.322 297.87C440.276 297.931 440.188 297.992 440.094 298.056C439.912 298.18 439.728 298.29 439.547 298.386C439.186 298.576 438.839 298.709 438.541 298.801C437.945 298.984 437.55 299.024 437.553 299.078Z" fill="#263238"/>
<path d="M437.691 299.22C437.728 299.234 437.921 298.866 437.938 298.209C437.946 297.884 437.9 297.491 437.76 297.077C437.689 296.87 437.594 296.66 437.472 296.455C437.343 296.254 437.184 295.984 436.785 295.951C436.577 295.949 436.408 296.115 436.354 296.254C436.288 296.396 436.278 296.517 436.257 296.637C436.226 296.88 436.238 297.118 436.278 297.337C436.358 297.775 436.552 298.137 436.76 298.395C437.188 298.92 437.62 299.028 437.627 298.993C437.659 298.941 437.296 298.757 436.966 298.25C436.803 298.001 436.655 297.669 436.603 297.285C436.577 297.094 436.573 296.89 436.604 296.685C436.631 296.463 436.709 296.283 436.793 296.303C436.897 296.299 437.08 296.459 437.171 296.633C437.285 296.815 437.377 297.003 437.449 297.187C437.593 297.558 437.661 297.915 437.685 298.217C437.733 298.824 437.635 299.206 437.691 299.22Z" fill="#263238"/>
<path d="M437.174 200.466L469.22 200.228L484.707 300.514L471.406 302.178L454.361 219.719L449.26 302.471L449.246 302.718L434.863 302.469L437.174 200.466Z" fill="#263238"/>
<path d="M451.75 208.592C451.739 208.604 451.488 208.61 451.029 208.613C450.532 208.614 449.878 208.614 449.069 208.615C447.363 208.602 445.013 208.582 442.229 208.56L442.38 208.415C442.386 210.398 442.392 212.614 442.399 214.965L442.345 214.844C442.73 215.192 443.139 215.562 443.553 215.936C444.784 217.054 445.974 218.135 447.1 219.158L446.885 219.156C448.66 217.625 450.281 216.227 451.664 215.033L451.62 215.129C451.649 213.175 451.672 211.566 451.689 210.396C451.703 209.856 451.713 209.418 451.722 209.075C451.731 208.768 451.741 208.602 451.75 208.592C451.76 208.583 451.768 208.732 451.779 209.025C451.787 209.361 451.798 209.79 451.812 210.318C451.828 211.507 451.852 213.142 451.88 215.129L451.881 215.185L451.837 215.224C450.465 216.432 448.858 217.845 447.098 219.394L446.991 219.489L446.883 219.392C445.755 218.372 444.561 217.293 443.327 216.179C442.914 215.805 442.505 215.434 442.121 215.086L442.067 215.036V214.965C442.074 212.614 442.08 210.398 442.086 208.415L442.087 208.265L442.237 208.27C445.058 208.352 447.439 208.422 449.168 208.472C449.962 208.503 450.605 208.528 451.093 208.547C451.532 208.566 451.762 208.582 451.75 208.592Z" fill="#455A64"/>
<path d="M466.832 208.158C466.823 208.17 466.599 208.203 466.192 208.255C465.745 208.309 465.162 208.38 464.444 208.467C462.914 208.637 460.813 208.872 458.311 209.151L458.441 208.991C458.687 210.93 458.969 213.137 459.268 215.49L459.207 215.382C459.648 215.728 460.116 216.096 460.59 216.468C461.766 217.396 462.907 218.295 463.991 219.151L463.764 219.176C465.156 217.473 466.433 215.912 467.533 214.565L467.506 214.662C467.294 212.728 467.12 211.129 466.993 209.962C466.939 209.424 466.896 208.987 466.863 208.643C466.835 208.336 466.824 208.169 466.832 208.158C466.841 208.147 466.869 208.296 466.915 208.586C466.965 208.92 467.029 209.345 467.107 209.869C467.271 211.05 467.496 212.671 467.768 214.631L467.775 214.684L467.74 214.728C466.653 216.084 465.392 217.659 464.017 219.374L463.917 219.499L463.79 219.4C462.703 218.547 461.56 217.651 460.381 216.726C459.908 216.353 459.44 215.985 459 215.638L458.947 215.596L458.938 215.53C458.654 213.175 458.388 210.965 458.153 209.026L458.136 208.879L458.283 208.866C460.827 208.642 462.965 208.454 464.521 208.317C465.229 208.262 465.803 208.218 466.244 208.183C466.638 208.156 466.842 208.146 466.832 208.158Z" fill="#455A64"/>
<path d="M447.226 223.38C447.203 223.342 447.713 222.997 448.57 222.493C449.427 221.988 450.634 221.327 451.997 220.657C453.36 219.986 454.622 219.433 455.546 219.062C456.47 218.691 457.056 218.496 457.073 218.536C457.091 218.58 456.538 218.85 455.641 219.275C454.744 219.699 453.504 220.283 452.146 220.951C450.788 221.619 449.569 222.245 448.685 222.696C447.801 223.148 447.25 223.42 447.226 223.38Z" fill="#455A64"/>
<path d="M447.638 225.815C447.59 225.72 449.264 225.066 450.797 223.558C452.35 222.069 453.037 220.429 453.133 220.478C453.212 220.487 452.641 222.245 451.031 223.793C449.437 225.357 447.646 225.894 447.638 225.815Z" fill="#455A64"/>
<path d="M438.591 254.793C438.649 254.77 438.886 255.513 439.59 256.523C440.28 257.528 441.525 258.779 443.267 259.506C445.011 260.23 446.788 260.236 448 260.022C449.226 259.815 449.93 259.463 449.954 259.52C449.963 259.538 449.797 259.643 449.475 259.791C449.154 259.939 448.668 260.115 448.045 260.251C446.812 260.53 444.959 260.565 443.138 259.809C441.318 259.05 440.051 257.717 439.394 256.651C439.058 256.116 438.846 255.651 438.73 255.32C438.612 254.989 438.572 254.799 438.591 254.793Z" fill="#455A64"/>
<path d="M440.698 253.938C440.719 253.89 441.194 254.069 441.984 254.261C442.772 254.457 443.883 254.637 445.122 254.681C447.607 254.772 449.616 254.398 449.632 254.507C449.64 254.548 449.148 254.686 448.333 254.818C447.518 254.944 446.376 255.064 445.109 255.011C443.844 254.966 442.706 254.744 441.919 254.485C441.128 254.23 440.682 253.973 440.698 253.938Z" fill="#455A64"/>
<path d="M464.525 254.534C464.591 254.445 466.306 255.998 468.943 256.949C471.57 257.931 473.897 257.862 473.887 257.972C473.888 258.01 473.313 258.078 472.381 258.02C471.451 257.965 470.167 257.748 468.826 257.258C467.487 256.765 466.372 256.1 465.631 255.542C464.888 254.985 464.499 254.562 464.525 254.534Z" fill="#455A64"/>
<path d="M467.334 254.413C467.349 254.315 468.651 254.474 470.248 254.343C471.846 254.223 473.107 253.863 473.136 253.957C473.169 254.034 471.921 254.546 470.274 254.671C468.629 254.805 467.315 254.494 467.334 254.413Z" fill="#455A64"/>
<path d="M454.552 220.411C454.589 220.312 456.818 221.245 459.74 221.695C462.658 222.167 465.071 221.967 465.075 222.072C465.079 222.112 464.481 222.214 463.503 222.254C462.526 222.295 461.166 222.253 459.687 222.02C458.208 221.785 456.903 221.408 455.988 221.068C455.072 220.728 454.536 220.448 454.552 220.411Z" fill="#455A64"/>
<path d="M455.427 217.019C455.52 217.019 455.591 217.303 455.586 217.653C455.582 218.003 455.503 218.286 455.411 218.284C455.319 218.282 455.247 217.998 455.252 217.649C455.257 217.301 455.336 217.018 455.427 217.019Z" fill="#455A64"/>
<path d="M455.418 214.487C455.51 214.486 455.588 214.768 455.591 215.119C455.594 215.469 455.522 215.753 455.43 215.753C455.338 215.753 455.26 215.471 455.257 215.121C455.253 214.773 455.326 214.489 455.418 214.487Z" fill="#455A64"/>
<path d="M455.351 211.957C455.443 211.953 455.527 212.234 455.538 212.584C455.549 212.934 455.484 213.22 455.392 213.222C455.299 213.224 455.216 212.944 455.204 212.594C455.193 212.246 455.259 211.96 455.351 211.957Z" fill="#455A64"/>
<path d="M455.228 209.428C455.32 209.423 455.41 209.702 455.429 210.051C455.448 210.401 455.389 210.688 455.297 210.692C455.204 210.696 455.114 210.417 455.095 210.068C455.076 209.72 455.136 209.434 455.228 209.428Z" fill="#455A64"/>
<path d="M455.048 206.903C455.14 206.896 455.237 207.173 455.264 207.522C455.291 207.871 455.237 208.159 455.146 208.165C455.054 208.171 454.957 207.894 454.93 207.547C454.903 207.199 454.956 206.91 455.048 206.903Z" fill="#455A64"/>
<path d="M454.811 204.383C454.903 204.374 455.006 204.649 455.04 204.997C455.075 205.345 455.029 205.634 454.936 205.643C454.845 205.652 454.742 205.377 454.707 205.029C454.673 204.681 454.72 204.393 454.811 204.383Z" fill="#455A64"/>
<path d="M472.884 299.826C472.975 299.808 473.105 300.072 473.174 300.414C473.243 300.757 473.227 301.049 473.136 301.067C473.046 301.085 472.916 300.821 472.847 300.479C472.777 300.136 472.794 299.844 472.884 299.826Z" fill="#455A64"/>
<path d="M472.381 297.344C472.472 297.326 472.602 297.59 472.671 297.932C472.74 298.275 472.724 298.567 472.633 298.585C472.543 298.603 472.413 298.339 472.344 297.997C472.274 297.655 472.291 297.362 472.381 297.344Z" fill="#455A64"/>
<path d="M471.878 294.863C471.968 294.845 472.098 295.108 472.167 295.451C472.237 295.793 472.22 296.086 472.13 296.104C472.039 296.121 471.909 295.858 471.84 295.515C471.77 295.173 471.788 294.88 471.878 294.863Z" fill="#455A64"/>
<path d="M471.374 292.381C471.464 292.363 471.594 292.626 471.664 292.969C471.733 293.311 471.716 293.604 471.626 293.622C471.536 293.639 471.406 293.376 471.336 293.033C471.266 292.691 471.284 292.398 471.374 292.381Z" fill="#455A64"/>
<path d="M470.87 289.898C470.96 289.881 471.09 290.144 471.16 290.487C471.229 290.829 471.212 291.122 471.122 291.139C471.032 291.157 470.902 290.894 470.833 290.551C470.763 290.209 470.78 289.916 470.87 289.898Z" fill="#455A64"/>
<path d="M470.367 287.416C470.457 287.398 470.587 287.662 470.657 288.005C470.726 288.347 470.709 288.639 470.619 288.657C470.529 288.675 470.399 288.412 470.329 288.069C470.259 287.726 470.276 287.434 470.367 287.416Z" fill="#455A64"/>
<path d="M469.863 284.934C469.954 284.917 470.084 285.18 470.153 285.523C470.222 285.865 470.206 286.158 470.115 286.175C470.025 286.193 469.895 285.93 469.826 285.587C469.756 285.245 469.773 284.952 469.863 284.934Z" fill="#455A64"/>
<path d="M469.36 282.452C469.451 282.434 469.58 282.698 469.649 283.041C469.719 283.383 469.702 283.675 469.612 283.693C469.521 283.711 469.391 283.448 469.322 283.105C469.253 282.762 469.27 282.47 469.36 282.452Z" fill="#455A64"/>
<path d="M468.856 279.97C468.947 279.952 469.076 280.216 469.146 280.559C469.215 280.901 469.198 281.193 469.108 281.211C469.018 281.229 468.888 280.966 468.818 280.623C468.749 280.28 468.766 279.988 468.856 279.97Z" fill="#455A64"/>
<path d="M468.353 277.489C468.443 277.471 468.573 277.735 468.642 278.077C468.712 278.42 468.695 278.712 468.605 278.73C468.515 278.748 468.385 278.484 468.315 278.142C468.245 277.799 468.262 277.506 468.353 277.489Z" fill="#455A64"/>
<path d="M467.849 275.007C467.939 274.989 468.069 275.253 468.139 275.595C468.208 275.938 468.191 276.23 468.101 276.248C468.011 276.266 467.881 276.002 467.812 275.66C467.741 275.317 467.759 275.025 467.849 275.007Z" fill="#455A64"/>
<path d="M467.346 272.525C467.436 272.507 467.566 272.771 467.635 273.113C467.704 273.456 467.688 273.748 467.597 273.766C467.507 273.784 467.377 273.52 467.308 273.178C467.238 272.835 467.255 272.543 467.346 272.525Z" fill="#455A64"/>
<path d="M466.842 270.043C466.932 270.025 467.062 270.289 467.131 270.631C467.201 270.974 467.184 271.266 467.093 271.284C467.003 271.302 466.873 271.038 466.803 270.696C466.735 270.353 466.752 270.061 466.842 270.043Z" fill="#455A64"/>
<path d="M466.339 267.561C466.429 267.543 466.559 267.806 466.628 268.149C466.698 268.492 466.681 268.784 466.591 268.802C466.5 268.82 466.37 268.556 466.301 268.214C466.231 267.871 466.248 267.579 466.339 267.561Z" fill="#455A64"/>
<path d="M465.835 265.079C465.925 265.061 466.055 265.324 466.125 265.667C466.194 266.01 466.177 266.302 466.087 266.32C465.997 266.338 465.867 266.074 465.797 265.731C465.727 265.389 465.745 265.097 465.835 265.079Z" fill="#455A64"/>
<path d="M465.331 262.597C465.421 262.579 465.551 262.843 465.621 263.185C465.69 263.528 465.673 263.82 465.583 263.838C465.493 263.856 465.363 263.592 465.294 263.25C465.224 262.907 465.241 262.615 465.331 262.597Z" fill="#455A64"/>
<path d="M464.828 260.115C464.918 260.097 465.048 260.361 465.117 260.704C465.187 261.046 465.17 261.338 465.079 261.356C464.989 261.374 464.859 261.111 464.79 260.768C464.72 260.425 464.737 260.133 464.828 260.115Z" fill="#455A64"/>
<path d="M464.325 257.633C464.415 257.616 464.545 257.879 464.614 258.222C464.683 258.564 464.667 258.857 464.576 258.874C464.486 258.892 464.356 258.629 464.287 258.286C464.217 257.944 464.234 257.651 464.325 257.633Z" fill="#455A64"/>
<path d="M463.821 255.151C463.911 255.133 464.041 255.397 464.11 255.74C464.18 256.082 464.163 256.374 464.073 256.392C463.982 256.41 463.852 256.147 463.783 255.804C463.713 255.461 463.73 255.169 463.821 255.151Z" fill="#455A64"/>
<path d="M463.317 252.669C463.407 252.651 463.537 252.915 463.607 253.258C463.676 253.6 463.659 253.892 463.569 253.91C463.479 253.928 463.349 253.665 463.279 253.322C463.21 252.979 463.227 252.687 463.317 252.669Z" fill="#455A64"/>
<path d="M462.813 250.187C462.904 250.169 463.034 250.433 463.103 250.776C463.172 251.118 463.155 251.41 463.065 251.428C462.975 251.446 462.845 251.183 462.776 250.84C462.706 250.497 462.723 250.205 462.813 250.187Z" fill="#455A64"/>
<path d="M462.31 247.705C462.401 247.687 462.531 247.951 462.6 248.294C462.669 248.636 462.652 248.928 462.562 248.946C462.472 248.964 462.342 248.701 462.273 248.358C462.203 248.015 462.219 247.723 462.31 247.705Z" fill="#455A64"/>
<path d="M461.807 245.223C461.897 245.205 462.027 245.469 462.096 245.812C462.165 246.154 462.149 246.446 462.058 246.464C461.967 246.482 461.837 246.219 461.768 245.876C461.699 245.533 461.716 245.241 461.807 245.223Z" fill="#455A64"/>
<path d="M461.303 242.741C461.393 242.723 461.523 242.987 461.592 243.33C461.662 243.672 461.645 243.964 461.555 243.982C461.464 244 461.334 243.737 461.265 243.394C461.196 243.051 461.213 242.759 461.303 242.741Z" fill="#455A64"/>
<path d="M460.799 240.26C460.889 240.242 461.019 240.506 461.089 240.848C461.158 241.191 461.141 241.483 461.051 241.501C460.961 241.519 460.831 241.255 460.761 240.913C460.692 240.57 460.709 240.277 460.799 240.26Z" fill="#455A64"/>
<path d="M460.296 237.778C460.387 237.76 460.516 238.024 460.586 238.366C460.655 238.709 460.638 239.001 460.547 239.019C460.457 239.037 460.327 238.773 460.258 238.431C460.188 238.088 460.205 237.796 460.296 237.778Z" fill="#455A64"/>
<path d="M459.792 235.296C459.883 235.278 460.013 235.541 460.082 235.884C460.151 236.227 460.134 236.519 460.044 236.537C459.953 236.555 459.823 236.291 459.754 235.948C459.685 235.606 459.702 235.314 459.792 235.296Z" fill="#455A64"/>
<path d="M459.289 232.814C459.379 232.796 459.509 233.059 459.578 233.402C459.648 233.745 459.631 234.037 459.541 234.055C459.45 234.073 459.32 233.809 459.251 233.466C459.182 233.124 459.198 232.832 459.289 232.814Z" fill="#455A64"/>
<path d="M458.785 230.332C458.875 230.314 459.005 230.577 459.074 230.92C459.144 231.263 459.127 231.555 459.037 231.573C458.947 231.591 458.816 231.327 458.747 230.984C458.678 230.642 458.695 230.35 458.785 230.332Z" fill="#455A64"/>
<path d="M458.282 227.85C458.372 227.832 458.502 228.095 458.571 228.438C458.641 228.781 458.624 229.073 458.534 229.091C458.443 229.109 458.314 228.845 458.244 228.502C458.174 228.16 458.191 227.868 458.282 227.85Z" fill="#455A64"/>
<path d="M457.778 225.368C457.868 225.35 457.998 225.613 458.068 225.956C458.137 226.299 458.12 226.591 458.03 226.609C457.94 226.627 457.81 226.363 457.74 226.02C457.67 225.678 457.688 225.386 457.778 225.368Z" fill="#455A64"/>
<path d="M457.274 222.886C457.365 222.868 457.495 223.132 457.564 223.475C457.633 223.817 457.617 224.109 457.526 224.127C457.436 224.145 457.306 223.882 457.237 223.539C457.167 223.196 457.184 222.904 457.274 222.886Z" fill="#455A64"/>
<path d="M456.837 220.73C456.928 220.712 457.043 220.902 457.094 221.155C457.145 221.407 457.113 221.627 457.023 221.645C456.933 221.662 456.818 221.472 456.767 221.219C456.715 220.967 456.746 220.747 456.837 220.73Z" fill="#455A64"/>
<path d="M456.572 122.534L456.655 149.142L445.077 149.686L444.743 143.214C444.743 143.214 440.631 144.019 439.569 140.253C438.892 137.848 439.061 119.258 439.061 119.258L456.572 122.534Z" fill="#FFBE9D"/>
<path d="M437.537 121.133C439.361 121.647 439.757 124.586 439.757 124.586L442.617 130.815C444.074 129.691 446.03 129.755 446.401 132.279C446.669 134.104 444.368 134.473 444.368 134.473C445.707 136.72 446.615 138.538 448.565 140.675C450.676 142.988 451.858 143.221 454.146 143.259H456.67C456.67 143.259 457.905 139.305 460.194 129.416C462.732 118.446 449.575 119.859 447.136 117.059C443.164 112.498 431.789 119.51 437.537 121.133Z" fill="#263238"/>
<path d="M459.954 130.451C462.087 129.038 462.279 125.086 461.035 122.716C459.79 120.346 457.172 118.74 454.466 118.688C454.105 118.681 453.731 118.698 453.394 118.569C452.892 118.379 452.569 117.91 452.241 117.491C450.335 115.048 448.462 112.647 444.91 112.648C444.333 112.648 443.694 112.648 442.676 113.194C442.169 113.466 441.454 114.388 441.334 114.945C440.667 114.633 439.987 114.317 439.257 114.208C438.526 114.099 437.724 114.225 437.172 114.709C436.62 115.194 436.416 116.085 436.845 116.679C435.647 116.604 434.513 117.581 434.324 118.75C434.135 119.918 435.833 120.739 436.01 120.83C436.01 120.83 435.078 122.754 437.301 123.906C438.196 124.371 439.359 123.811 439.491 123.744" fill="#263238"/>
<path d="M451.501 133.01C451.599 133.012 451.627 133.904 451.874 134.962C452.111 136.022 452.473 136.84 452.385 136.884C452.311 136.927 451.797 136.145 451.547 135.034C451.291 133.926 451.415 133.001 451.501 133.01Z" fill="#455A64"/>
<path d="M450.1 131.704C450.195 131.698 450.318 132.552 450.517 133.592C450.712 134.633 450.91 135.473 450.819 135.502C450.734 135.53 450.387 134.717 450.188 133.653C449.985 132.59 450.012 131.708 450.1 131.704Z" fill="#455A64"/>
<path d="M446.091 127.313C446.11 127.28 446.492 127.456 446.97 127.919C447.451 128.376 447.985 129.143 448.347 130.08C448.71 131.016 448.871 131.905 448.964 132.543C449.055 133.183 449.077 133.582 449.033 133.59C448.987 133.598 448.882 133.211 448.732 132.586C448.58 131.963 448.385 131.099 448.035 130.198C447.686 129.297 447.212 128.554 446.796 128.077C446.384 127.595 446.06 127.355 446.091 127.313Z" fill="#455A64"/>
<path d="M444.469 124.323C444.57 124.341 444.301 125.46 444.65 126.784C444.976 128.114 445.749 128.975 445.669 129.039C445.623 129.11 444.679 128.291 444.326 126.864C443.955 125.442 444.396 124.28 444.469 124.323Z" fill="#455A64"/>
<path d="M458.287 130.968C458.242 130.888 458.528 130.647 458.926 130.428C459.324 130.208 459.683 130.095 459.728 130.175C459.773 130.254 459.487 130.496 459.089 130.715C458.691 130.934 458.332 131.048 458.287 130.968Z" fill="#455A64"/>
<path d="M452.694 128.127C452.787 128.107 452.964 128.594 453.293 129.125C453.616 129.659 453.972 130.04 453.91 130.112C453.857 130.183 453.365 129.884 453.007 129.295C452.645 128.709 452.606 128.14 452.694 128.127Z" fill="#455A64"/>
<path d="M450.974 127.216C451.067 127.189 451.312 127.783 451.75 128.428C452.183 129.078 452.643 129.531 452.581 129.605C452.53 129.675 451.938 129.308 451.472 128.61C451.002 127.917 450.888 127.236 450.974 127.216Z" fill="#455A64"/>
<path d="M442.425 116.073C442.417 116.065 442.461 116.014 442.554 115.924C442.642 115.829 442.794 115.715 442.997 115.573C443.409 115.307 444.095 115.014 444.99 114.964C445.876 114.909 446.971 115.091 447.995 115.692C449.016 116.291 449.909 117.277 450.546 118.452C451.01 119.305 451.323 120.189 451.544 121.017L451.314 120.918C452.228 120.456 453.187 120.268 454.035 120.275C454.887 120.271 455.627 120.448 456.204 120.666C456.784 120.887 457.206 121.145 457.474 121.344C457.74 121.547 457.868 121.676 457.858 121.688C457.825 121.737 457.28 121.234 456.137 120.853C455.027 120.475 453.202 120.294 451.465 121.197L451.288 121.289L451.235 121.098C451.01 120.291 450.7 119.432 450.251 118.608C449.636 117.474 448.791 116.531 447.836 115.952C446.881 115.372 445.844 115.172 445 115.196C444.147 115.215 443.481 115.46 443.064 115.683C442.646 115.915 442.447 116.098 442.425 116.073Z" fill="#455A64"/>
<path d="M436.336 117.521C436.351 117.555 436.039 117.53 435.768 117.892C435.642 118.065 435.535 118.333 435.58 118.63C435.624 118.921 435.846 119.229 436.189 119.409C436.531 119.598 436.975 119.653 437.428 119.54C437.882 119.432 438.331 119.181 438.769 118.864C439.211 118.551 439.659 118.167 440.208 117.871C440.752 117.575 441.365 117.361 442.009 117.24C443.302 117.002 444.578 117.155 445.646 117.509C446.719 117.865 447.594 118.394 448.268 118.896C448.944 119.4 449.426 119.882 449.745 120.223C450.06 120.568 450.213 120.778 450.197 120.791C450.152 120.836 449.48 120.038 448.129 119.084C447.451 118.616 446.589 118.124 445.551 117.797C444.519 117.473 443.298 117.337 442.07 117.563C441.458 117.678 440.879 117.879 440.365 118.153C439.851 118.424 439.409 118.793 438.947 119.11C438.489 119.43 438 119.697 437.489 119.805C436.982 119.922 436.455 119.843 436.072 119.611C435.682 119.387 435.429 119.015 435.395 118.652C435.362 118.29 435.508 117.997 435.666 117.813C436.013 117.429 436.358 117.513 436.336 117.521Z" fill="#455A64"/>
<path d="M473.374 226.297C473.279 226.314 472.518 222.824 471.676 218.502C470.833 214.179 470.227 210.66 470.322 210.642C470.416 210.624 471.177 214.113 472.02 218.437C472.863 222.759 473.469 226.278 473.374 226.297Z" fill="#455A64"/>
<path d="M387.907 165.614C387.907 165.614 384.739 164.035 383.348 163.161C382.874 162.864 381.248 161.428 380.401 160.669C380.18 160.472 379.824 160.622 379.819 160.916C379.811 161.432 379.871 162.118 380.188 162.6C380.758 163.468 381.069 164.081 381.069 164.081C381.069 164.081 375.114 161.519 374.334 161.833C373.479 162.178 373.764 162.804 374.334 163.11C374.903 163.417 378.064 165 378.064 165C378.064 165 373.423 164.149 373.05 164.124C371.926 164.049 372.365 165.307 372.935 165.409C373.505 165.511 377.753 166.993 377.753 166.993C377.753 166.993 372.478 166.596 372.269 167.074C371.946 167.81 372.625 168.117 373.039 168.168C373.453 168.219 377.693 168.967 377.693 168.967C377.693 168.967 378.53 169.36 377.96 169.462C377.39 169.564 374.61 169.243 373.984 169.522C373.773 169.616 373.338 170.338 374.645 170.467C375.383 170.54 382.105 172.05 386.923 171.948L387.907 165.614Z" fill="#263238"/>
<path d="M387.526 164.931L386.922 172.968L389.28 173.611C389.28 173.611 389.999 175.374 392.734 176.173C395.468 176.973 413.35 179.576 429.006 172.56C439.524 167.847 441.342 165.084 441.342 165.084C441.342 165.084 442.891 152.235 436.184 150.349L428.125 152.275L422.826 157.406L419.086 156.15L397.44 163.41L390.63 165.208L387.526 164.931Z" fill="#455A64"/>
<path d="M428.124 152.274C428.158 152.306 427.667 152.885 426.825 153.777C425.982 154.668 424.784 155.873 423.357 157.098C421.93 158.323 420.533 159.311 419.481 159.956C418.429 160.604 417.738 160.933 417.717 160.896C417.69 160.85 418.335 160.447 419.344 159.752C420.353 159.059 421.711 158.052 423.127 156.837C424.541 155.621 425.761 154.45 426.648 153.605C427.533 152.759 428.088 152.24 428.124 152.274Z" fill="#263238"/>
<path d="M417.802 172.841C417.805 172.864 417.581 172.904 417.172 172.956C416.765 173.013 416.17 173.057 415.434 173.079C413.963 173.126 411.915 173.019 409.708 172.568C407.502 172.111 405.581 171.401 404.252 170.777C403.587 170.467 403.059 170.191 402.709 169.979C402.356 169.77 402.166 169.645 402.179 169.624C402.207 169.574 403.008 169.994 404.353 170.554C405.696 171.115 407.602 171.778 409.78 172.229C411.958 172.675 413.974 172.819 415.433 172.834C416.892 172.852 417.797 172.783 417.802 172.841Z" fill="#263238"/>
<path d="M434.999 199.034C434.999 199.034 434.642 201.547 434.218 204.383C433.88 206.643 433.777 209.729 436.207 210.801C436.207 210.801 465.838 210.123 470.117 210.414C473.472 210.642 471.195 201.221 471.195 201.221L434.999 199.034Z" fill="#455A64"/>
<path d="M460.062 208.584C459.974 208.612 459.543 207.49 459.323 206.033C459.098 204.577 459.176 203.38 459.269 203.381C459.37 203.381 459.45 204.554 459.67 205.981C459.885 207.41 460.159 208.555 460.062 208.584Z" fill="#263238"/>
<path d="M462.081 207.102C461.989 207.131 461.623 206.254 461.265 205.143C460.906 204.033 460.691 203.109 460.783 203.08C460.875 203.05 461.241 203.928 461.599 205.038C461.958 206.149 462.174 207.074 462.081 207.102Z" fill="#263238"/>
<path d="M471.594 202.434C471.652 202.432 471.654 202.936 471.846 203.704C472.037 204.467 472.441 205.549 472.446 206.821C472.447 207.454 472.344 208.063 472.128 208.578C471.916 209.094 471.61 209.505 471.303 209.794C470.678 210.38 470.115 210.447 470.116 210.414C470.09 210.357 470.596 210.208 471.125 209.624C471.666 209.057 472.123 208.025 472.095 206.823C472.092 205.621 471.741 204.561 471.602 203.754C471.468 202.939 471.556 202.431 471.594 202.434Z" fill="#263238"/>
<path d="M434.888 170.162C434.888 170.162 432.69 200.638 434.218 204.383C434.218 204.383 454.752 203.292 462.088 202.971C469.284 202.656 471.74 202.421 471.74 202.421L470.285 169.467L468.593 151.549L459.815 146.843L444.022 146.285C439.068 148.389 434.245 149.901 432.471 151.235L434.888 170.162Z" fill="#FBC343"/>
<path d="M463.553 184.178C463.572 184.193 463.35 184.507 462.931 185.065C462.519 185.627 461.874 186.406 461.037 187.332C460.204 188.263 459.146 189.314 457.912 190.418C456.666 191.508 455.237 192.642 453.656 193.723C452.067 194.792 450.48 195.701 449.001 196.458C447.514 197.198 446.14 197.796 444.96 198.229C443.783 198.668 442.815 198.982 442.134 199.161C441.457 199.347 441.079 199.438 441.072 199.415C441.066 199.393 441.43 199.257 442.093 199.032C442.759 198.815 443.71 198.466 444.869 198.001C446.031 197.542 447.384 196.925 448.853 196.175C450.313 195.408 451.881 194.498 453.458 193.438C455.026 192.366 456.449 191.249 457.698 190.18C458.934 189.097 460.003 188.072 460.854 187.168C461.71 186.267 462.38 185.516 462.824 184.982C463.275 184.451 463.533 184.164 463.553 184.178Z" fill="#263238"/>
<path d="M434.284 165.438L469.686 163.122L470.342 170.756L434.678 173.257L434.888 170.162L434.284 165.438Z" fill="#F5F5F5"/>
<g opacity="0.2">
<path d="M444.022 146.285C447.133 149.237 452.632 152.555 457.002 151.563C458.131 151.307 458.794 151.16 459.609 150.349C460.423 149.537 460.257 147.899 459.815 146.844L444.022 146.285Z" fill="black"/>
</g>
<g opacity="0.2">
<path d="M462.656 185.696C463.296 184.917 460.913 184.601 459.932 184.862C458.951 185.123 458.141 185.802 457.442 186.529C456.743 187.256 456.111 188.055 455.307 188.669C453.915 189.731 452.127 190.144 450.381 190.365C448.635 190.587 446.855 190.649 445.165 191.132C443.474 191.616 441.831 192.604 441.065 194.167C440.3 195.73 440.713 197.907 442.261 198.734C442.261 198.734 452.581 197.964 462.656 185.696Z" fill="black"/>
</g>
<path d="M440.262 147.803C440.262 147.803 441.693 139.959 449.521 138.998C457.348 138.038 460.182 141.923 460.508 142.337C460.832 142.751 462.537 145.217 459.431 146.83L444.022 146.285L440.262 147.803Z" fill="#455A64"/>
<path d="M458.713 142.808C458.715 142.83 458.433 142.874 457.917 142.912C457.402 142.944 456.652 142.952 455.731 142.902C454.81 142.855 453.718 142.747 452.511 142.65C451.304 142.563 449.972 142.48 448.596 142.631C445.818 142.888 443.576 144.257 442.26 145.466C440.918 146.686 440.386 147.705 440.322 147.661C440.305 147.652 440.422 147.393 440.7 146.962C440.976 146.532 441.422 145.929 442.088 145.288C443.386 144.007 445.688 142.553 448.558 142.287C449.974 142.133 451.325 142.228 452.538 142.333C453.725 142.453 454.808 142.563 455.748 142.658C456.661 142.739 457.401 142.768 457.913 142.778C458.425 142.781 458.711 142.783 458.713 142.808Z" fill="#263238"/>
<path d="M458.67 145.548C458.68 145.588 458.053 145.778 457.008 145.943C455.964 146.108 454.497 146.221 452.882 146.123C451.267 146.02 449.826 145.727 448.811 145.434C447.795 145.142 447.198 144.876 447.212 144.836C447.229 144.785 447.853 144.969 448.873 145.197C449.892 145.427 451.314 145.677 452.904 145.777C454.492 145.874 455.936 145.802 456.976 145.7C458.017 145.599 458.66 145.495 458.67 145.548Z" fill="#263238"/>
<path d="M491.776 309.432C491.776 309.528 384.447 309.605 252.08 309.605C119.667 309.605 12.3608 309.527 12.3608 309.432C12.3608 309.337 119.667 309.259 252.08 309.259C384.447 309.259 491.776 309.336 491.776 309.432Z" fill="#263238"/>
</svg>
